<svg width="95" height="31" viewBox="0 0 95 31" fill="none" xmlns="http://www.w3.org/2000/svg">
<path d="M14.1758 19.4888C14.1758 19.0444 14.1074 18.6457 13.9707 18.2925C13.8454 17.9279 13.6061 17.5975 13.2529 17.3013C12.8997 16.9937 12.4041 16.6917 11.7661 16.3955C11.1281 16.0993 10.3021 15.7917 9.28809 15.4727C8.16016 15.1081 7.08919 14.6979 6.0752 14.2422C5.07259 13.7865 4.18392 13.2567 3.40918 12.6528C2.64583 12.0376 2.04199 11.3255 1.59766 10.5166C1.16471 9.70768 0.948242 8.76774 0.948242 7.69678C0.948242 6.65999 1.17611 5.72005 1.63184 4.87695C2.08757 4.02246 2.72559 3.29329 3.5459 2.68945C4.36621 2.07422 5.33464 1.6014 6.45117 1.271C7.5791 0.940592 8.81527 0.775391 10.1597 0.775391C11.994 0.775391 13.5947 1.10579 14.9619 1.7666C16.3291 2.42741 17.3887 3.33317 18.1406 4.48389C18.904 5.6346 19.2856 6.95052 19.2856 8.43164H14.1929C14.1929 7.70247 14.0391 7.06445 13.7314 6.51758C13.4352 5.95931 12.9795 5.52067 12.3643 5.20166C11.7604 4.88265 10.9971 4.72314 10.0742 4.72314C9.18555 4.72314 8.44499 4.85986 7.85254 5.1333C7.26009 5.39535 6.81576 5.75423 6.51953 6.20996C6.22331 6.6543 6.0752 7.1556 6.0752 7.71387C6.0752 8.13542 6.17773 8.51709 6.38281 8.85889C6.59928 9.20068 6.91829 9.51969 7.33984 9.81592C7.76139 10.1121 8.27979 10.3913 8.89502 10.6533C9.51025 10.9154 10.2223 11.1717 11.0312 11.4224C12.387 11.8325 13.5776 12.2939 14.603 12.8066C15.6398 13.3193 16.5057 13.8947 17.2007 14.5327C17.8957 15.1707 18.4198 15.8942 18.7729 16.7031C19.1261 17.512 19.3027 18.4292 19.3027 19.4546C19.3027 20.5369 19.092 21.5054 18.6704 22.3599C18.2489 23.2144 17.6393 23.9378 16.8418 24.5303C16.0443 25.1227 15.0929 25.5728 13.9878 25.8804C12.8826 26.188 11.6465 26.3418 10.2793 26.3418C9.04883 26.3418 7.83545 26.1823 6.63916 25.8633C5.44287 25.5329 4.35482 25.0373 3.375 24.3765C2.40658 23.7157 1.63184 22.8726 1.05078 21.8472C0.469727 20.8218 0.179199 19.6084 0.179199 18.207H5.32324C5.32324 18.9818 5.44287 19.6369 5.68213 20.1724C5.92139 20.7078 6.25749 21.1408 6.69043 21.4712C7.13477 21.8016 7.65885 22.0409 8.2627 22.189C8.87793 22.3371 9.55013 22.4111 10.2793 22.4111C11.168 22.4111 11.8971 22.2858 12.4668 22.0352C13.0479 21.7845 13.4751 21.437 13.7485 20.9927C14.0334 20.5483 14.1758 20.047 14.1758 19.4888ZM36.3071 22.3086L43.0405 27.6406L39.8105 30.4434L33.1797 25.1113L36.3071 22.3086ZM43.2114 12.9775V14.1567C43.2114 16.048 42.9551 17.7456 42.4424 19.2495C41.9411 20.7534 41.2176 22.0352 40.272 23.0947C39.3263 24.1429 38.2098 24.9461 36.9224 25.5044C35.6349 26.0627 34.2051 26.3418 32.6328 26.3418C31.0719 26.3418 29.6421 26.0627 28.3433 25.5044C27.0444 24.9461 25.9222 24.1429 24.9766 23.0947C24.0309 22.0352 23.2961 20.7534 22.772 19.2495C22.2593 17.7456 22.0029 16.048 22.0029 14.1567V12.9775C22.0029 11.0749 22.2593 9.37728 22.772 7.88477C23.2961 6.38086 24.0252 5.09912 24.9595 4.03955C25.8937 2.97998 27.0103 2.17106 28.3091 1.61279C29.6079 1.05452 31.0378 0.775391 32.5986 0.775391C34.1709 0.775391 35.6007 1.05452 36.8882 1.61279C38.187 2.17106 39.3092 2.97998 40.2549 4.03955C41.2005 5.09912 41.9297 6.38086 42.4424 7.88477C42.9551 9.37728 43.2114 11.0749 43.2114 12.9775ZM38.0332 14.1567V12.9434C38.0332 11.6217 37.9079 10.4596 37.6572 9.45703C37.418 8.45443 37.0648 7.61133 36.5977 6.92773C36.1419 6.24414 35.578 5.73145 34.9058 5.38965C34.2336 5.03646 33.4645 4.85986 32.5986 4.85986C31.7327 4.85986 30.9637 5.03646 30.2915 5.38965C29.6193 5.73145 29.0553 6.24414 28.5996 6.92773C28.1439 7.61133 27.7964 8.45443 27.5571 9.45703C27.3179 10.4596 27.1982 11.6217 27.1982 12.9434V14.1567C27.1982 15.467 27.3179 16.6291 27.5571 17.6431C27.7964 18.6457 28.1439 19.4945 28.5996 20.1895C29.0667 20.873 29.6364 21.3914 30.3086 21.7446C30.9922 22.0978 31.7669 22.2744 32.6328 22.2744C33.4987 22.2744 34.262 22.0978 34.9229 21.7446C35.5951 21.3914 36.159 20.873 36.6147 20.1895C37.0819 19.4945 37.4351 18.6457 37.6743 17.6431C37.9136 16.6291 38.0332 15.467 38.0332 14.1567ZM55.6357 1.11719H64.9155C66.8182 1.11719 68.4531 1.40202 69.8203 1.97168C71.1989 2.54134 72.2585 3.38444 72.999 4.50098C73.7396 5.61751 74.1099 6.9904 74.1099 8.61963C74.1099 9.95264 73.882 11.0977 73.4263 12.0547C72.9819 13.0003 72.3496 13.7922 71.5293 14.4302C70.7204 15.0568 69.769 15.5581 68.6753 15.9341L67.0518 16.7886H58.9854L58.9512 12.7896H64.9497C65.8498 12.7896 66.596 12.63 67.1885 12.311C67.7809 11.992 68.2253 11.5477 68.5215 10.978C68.8291 10.4084 68.9829 9.74756 68.9829 8.99561C68.9829 8.19808 68.8348 7.50879 68.5386 6.92773C68.2424 6.34668 67.7923 5.90234 67.1885 5.59473C66.5846 5.28711 65.827 5.1333 64.9155 5.1333H60.7627V26H55.6357V1.11719ZM69.5469 26L63.873 14.9087L69.2905 14.8745L75.0327 25.7607V26H69.5469ZM82.5864 11.4224H85.2183C86.0614 11.4224 86.7563 11.2799 87.3032 10.9951C87.8501 10.6989 88.2546 10.2887 88.5166 9.76465C88.79 9.22917 88.9268 8.60824 88.9268 7.90186C88.9268 7.26383 88.8014 6.69987 88.5508 6.20996C88.3115 5.70866 87.9412 5.32129 87.4399 5.04785C86.9386 4.76302 86.3063 4.62061 85.543 4.62061C84.9391 4.62061 84.3809 4.74023 83.8682 4.97949C83.3555 5.21875 82.9453 5.55485 82.6377 5.98779C82.3301 6.42074 82.1763 6.94482 82.1763 7.56006H77.2373C77.2373 6.19287 77.6019 5.00228 78.3311 3.98828C79.0716 2.97428 80.0628 2.18245 81.3047 1.61279C82.5465 1.04313 83.9137 0.758301 85.4062 0.758301C87.0924 0.758301 88.5679 1.03174 89.8325 1.57861C91.0972 2.1141 92.0827 2.90592 92.7891 3.9541C93.4954 5.00228 93.8486 6.30111 93.8486 7.85059C93.8486 8.63672 93.6663 9.40007 93.3018 10.1406C92.9372 10.8698 92.4131 11.5306 91.7295 12.123C91.0573 12.7041 90.237 13.1712 89.2686 13.5244C88.3001 13.8662 87.2121 14.0371 86.0044 14.0371H82.5864V11.4224ZM82.5864 15.165V12.6187H86.0044C87.3602 12.6187 88.5508 12.7725 89.5762 13.0801C90.6016 13.3877 91.4618 13.832 92.1567 14.4131C92.8517 14.9827 93.3758 15.6606 93.729 16.4468C94.0822 17.2215 94.2588 18.0817 94.2588 19.0273C94.2588 20.1895 94.0366 21.2262 93.5923 22.1377C93.1479 23.0378 92.5213 23.8011 91.7124 24.4277C90.9149 25.0544 89.9806 25.5329 88.9097 25.8633C87.8387 26.1823 86.6709 26.3418 85.4062 26.3418C84.3581 26.3418 83.327 26.1994 82.313 25.9146C81.3104 25.6183 80.3989 25.1797 79.5786 24.5986C78.7697 24.0062 78.1203 23.2656 77.6304 22.377C77.1519 21.4769 76.9126 20.4116 76.9126 19.1812H81.8516C81.8516 19.8192 82.0111 20.3888 82.3301 20.8901C82.6491 21.3914 83.0877 21.7845 83.646 22.0693C84.2157 22.3542 84.848 22.4966 85.543 22.4966C86.3291 22.4966 87.0013 22.3542 87.5596 22.0693C88.1292 21.7731 88.5622 21.363 88.8584 20.8389C89.166 20.3034 89.3198 19.6825 89.3198 18.9761C89.3198 18.0646 89.1546 17.3354 88.8242 16.7886C88.4938 16.2303 88.021 15.8201 87.4058 15.5581C86.7905 15.2961 86.0614 15.165 85.2183 15.165H82.5864Z" fill="white"/>
</svg>
